<?xml version="1.0" encoding="UTF-8" standalone="no"?>
<svg xmlns:dc="http://purl.org/dc/elements/1.1/" xmlns:cc="http://creativecommons.org/ns#" xmlns:rdf="http://www.w3.org/1999/02/22-rdf-syntax-ns#" xmlns:svg="http://www.w3.org/2000/svg" xmlns="http://www.w3.org/2000/svg" xmlns:sodipodi="http://sodipodi.sourceforge.net/DTD/sodipodi-0.dtd" xmlns:inkscape="http://www.inkscape.org/namespaces/inkscape" width="748.27" height="1022.52" id="svg3305" version="1.1" inkscape:version="0.48" sodipodi:docname="Logo1.1.svg"><defs id="defs3307"/><sodipodi:namedview id="base" pagecolor="#ffffff" bordercolor="#666666" borderopacity="1" inkscape:pageopacity="0" inkscape:pageshadow="2" inkscape:zoom="0.44" inkscape:cx="53.56" inkscape:cy="437.23" inkscape:document-units="px" inkscape:current-layer="layer1" showgrid="false" inkscape:window-width="1920" inkscape:window-height="1151" inkscape:window-x="1440" inkscape:window-y="0" inkscape:window-maximized="1" showguides="true" fit-margin-top="0" fit-margin-left="0" fit-margin-right="0" fit-margin-bottom="0" width="744.09" inkscape:guide-bbox="true"><sodipodi:guide position="-321.44" orientation="0" id="guide3349"/><sodipodi:guide position="-321.44" orientation="1052.36" id="guide3355"/><sodipodi:guide orientation="1" position="878.11" id="guide3000"/></sodipodi:namedview><metadata id="metadata3310"><rdf:RDF><cc:Work rdf:about=""><dc:format>image/svg+xml</dc:format><dc:type rdf:resource="http://purl.org/dc/dcmitype/StillImage"/></cc:Work></rdf:RDF></metadata><g inkscape:label="Layer 1" inkscape:groupmode="layer" id="layer1" transform="translate(-321.44189,610.27924)"><g id="g2992"><path inkscape:export-ydpi="300" inkscape:export-xdpi="300" inkscape:export-filename="/Users/Marcel/Documents/Graphics/SE2-Project/LogoWithoutLetters.png" inkscape:connector-curvature="0" d="m696.75-594.73c-56.39 0-111.94 65.88-167.68 108.03-55.74 42.15-164.29 145.41-164.29 145.41l0.75 0c-16.83 14.49-27.24 34.39-27.24 56.36l0 178.29c4.32 0.04 8.64 0.06 12.96 0.09 17.73 0.07 35.53 0.01 53.26 0.09 10.84-0.17 21.65 0.13 32.5 0 0.38-0.81 0.75-1.64 1.13-2.44 3.32-7.09 6.53-14.21 8.17-21.89 0.42-2.91 1.09-5.78 1.78-8.64-0.3-27.56 69.67-60.81 72.61-31.56 0.03 2.79-0.07 5.57-0.19 8.36 0.29 5.92 1.35 11.81 2.35 17.66 2.05 9.38 5.17 18.5 7.89 27.71 2.49 6.74 4.74 13.62 6.86 20.48 1.15-5.48 2.24-10.94 3.29-16.44 3.11-17.73 6.26-35.42 10.61-52.89 4.06-17.76 8.92-35.31 13.34-52.98 4.32-18.32 9.18-36.49 14.37-54.58 4.27-16.55 8.36-33.16 12.31-49.79 1.76-7.42 3.16-15.01 3.57-22.64 0.25-0.94-0.25-2.73 0.47-1.5 0.4-11.32 6.04-8.6 36.17-21.61 27.61-17.85 33.58-24.11 34.19-15.78 0.37 1.13 0.26 2.22 0 3.48-0.14 4.29-0.7 10.5-0.94 18.98-0.52 17.51-0.75 35.09-1.03 52.6-0.62 23.72-0.04 47.41 0.94 71.11 0.97 19.83 3.58 39.43 6.86 58.99 2.28 12.62 3.65 25.45 4.51 38.23 0.25 5.35 0.86 10.67 3.01 15.59 3.03 3.27 8.93 3.24 13.06 3.76 17.47 1.5 34.99 1.94 52.51 1.6 31.21-0.48 62.46-1.95 93.56-4.51 35.15-2.78 70.32-5.05 105.58-5.17 30.04-0.31 59.87 3.39 89.71 6.29 6.37 0.47 12.78 0.95 19.16 1.41l0-162.32c0-21.96-10.33-41.87-27.15-56.36l3.01 0c0 0-108.56-103.27-164.29-145.41-55.74-42.15-111.29-108.03-167.68-108.03zm-90.74 462.07c-3.06 14.72-6.44 29.44-9.96 44.06-4.2 15.18-8.8 30.16-13.53 45.18-2.53 7.51-6.29 14.45-9.02 21.89 0.03 0.08 0.07 0.21 0.09 0.28-13.23 9.24-22.12 7.93-67.54 29.4-2.49 2.08-4.14 3.13-4.79 2.25-0.07 0.03-0.12 0.06-0.19 0.09 0.04-0.06 0.05-0.13 0.09-0.19-0.09-0.17-0.15-0.29-0.19-0.56-1.56-3.44-3.6-6.67-5.26-10.05-3.94-6.5-7.73-13.05-11.37-19.73-4.53-9.41-8.38-19.2-11.37-29.21-2.85-10.43-6.37-20.65-10.05-30.81-1.1-3.44-2.17-6.9-3.29-10.33-12.77 7.68-25.58 15.36-38.42 22.92-7.99 4.71-18.17 4.55-27.05 5.54-16.91 0.28-33.81-0.42-50.73-0.19-1.72 0.01-3.44-0.01-5.17 0l0 165.05c0 44.59 42.68 80.5 95.63 80.5l523.41 0c52.95 0 95.53-35.92 95.53-80.5l0-204.41-33.72 24.61c-15.08-1.33-30.13-3.08-45.18-4.7-29.39-3.17-58.79-6.35-88.39-6.2-35 0.12-69.98 1.95-104.83 5.17-31.86 2.6-63.78 4.49-95.72 5.64-18.72 0.53-37.5 1.07-56.17-0.56-7.15-1.31-14.58-2.98-18.32-9.86-2.53-5.94-3.45-12.31-3.1-18.79-0.13-8.84-0.58-17.7-1.41-26.49z" id="rect4349" style="fill-rule:nonzero;fill:#009688"/><text inkscape:export-ydpi="300" inkscape:export-xdpi="300" inkscape:export-filename="/Users/Marcel/Google Drive/Study/SE2-Projekt/Design/Logo/Logo.png" sodipodi:linespacing="125" id="text3118" y="353.39" x="324.17" xml:space="preserve" style="-inkscape-font-specification:Arial Rounded MT Bold;fill:#000;font-family:Arial Rounded MT Bold;font-size:205.14;letter-spacing:0;line-height:125;word-spacing:0"><tspan y="353.39" x="324.17" id="tspan3120" sodipodi:role="line"><tspan id="tspan4057" fill="#5c5c5c">loggr.</tspan><tspan id="tspan3890" fill="#009688">io</tspan></tspan></text><rect inkscape:export-ydpi="300" inkscape:export-xdpi="300" inkscape:export-filename="/Users/Marcel/Google Drive/Study/SE2-Projekt/Design/Logo/Logo.png" y="-610.28" x="321.44" height="1022.52" width="748.27" id="rect4804" style="color:#000000;display:inline;enable-background:accumulate;fill-rule:nonzero;fill:#fff;opacity:0;overflow:visible"/></g></g></svg>
