<?xml version="1.0" encoding="UTF-8" standalone="no"?>
<svg xmlns:dc="http://purl.org/dc/elements/1.1/" xmlns:cc="http://creativecommons.org/ns#" xmlns:rdf="http://www.w3.org/1999/02/22-rdf-syntax-ns#" xmlns:svg="http://www.w3.org/2000/svg" xmlns="http://www.w3.org/2000/svg" xmlns:sodipodi="http://sodipodi.sourceforge.net/DTD/sodipodi-0.dtd" xmlns:inkscape="http://www.inkscape.org/namespaces/inkscape" width="48" height="48" viewBox="0 0 48 48" id="svg3882" version="1.1" inkscape:version="0.48" sodipodi:docname="loggr_icon_white.svg"><defs id="defs3884"/><sodipodi:namedview id="base" pagecolor="#ffffff" bordercolor="#666666" borderopacity="1" inkscape:pageopacity="0" inkscape:pageshadow="2" inkscape:zoom="3.64" inkscape:cx="31.87" inkscape:cy="24.57" inkscape:document-units="px" inkscape:current-layer="layer1" showgrid="false" fit-margin-top="0" fit-margin-left="0" fit-margin-right="0" fit-margin-bottom="0" inkscape:window-width="1440" inkscape:window-height="851" inkscape:window-x="0" inkscape:window-y="0" inkscape:window-maximized="1" inkscape:snap-page="true"/><metadata id="metadata3887"><rdf:RDF><cc:Work rdf:about=""><dc:format>image/svg+xml</dc:format><dc:type rdf:resource="http://purl.org/dc/dcmitype/StillImage"/></cc:Work></rdf:RDF></metadata><g inkscape:label="Layer 1" inkscape:groupmode="layer" id="layer1" transform="translate(-179.28249,-337.82726)"><path inkscape:export-ydpi="300" inkscape:export-xdpi="300" inkscape:export-filename="/Users/Marcel/Documents/Graphics/SE2-Project/LogoTransparentWhite.png" id="path3903" d="m203.32 337.83c-3.48 0-6.9 4.06-10.34 6.66-3.44 2.6-10.13 8.97-10.13 8.97l0.05 0c-1.04 0.89-1.68 2.12-1.68 3.48l0 11c0.27 0 0.53 0 0.8 0.01 1.09 0.01 2.19 0 3.29 0.01 0.67-0.01 1.34 0.01 2 0 0.02-0.05 0.05-0.1 0.07-0.15 0.2-0.44 0.4-0.88 0.5-1.35 0.03-0.18 0.07-0.36 0.11-0.53-0.02-1.7 4.3-3.75 4.48-1.95 0 0.17 0 0.34-0.01 0.52 0.02 0.37 0.08 0.73 0.14 1.09 0.13 0.58 0.32 1.14 0.49 1.71 0.15 0.42 0.29 0.84 0.42 1.26 0.07-0.34 0.14-0.67 0.2-1.01 0.19-1.09 0.39-2.18 0.65-3.26 0.25-1.1 0.55-2.18 0.82-3.27 0.27-1.13 0.57-2.25 0.89-3.37 0.26-1.02 0.52-2.05 0.76-3.07 0.11-0.46 0.19-0.93 0.22-1.4 0.02-0.06-0.02-0.17 0.03-0.09 0.02-0.7 0.37-0.53 2.23-1.33 1.7-1.1 2.07-1.49 2.11-0.97 0.02 0.07 0.02 0.14 0 0.21-0.01 0.26-0.04 0.65-0.06 1.17-0.03 1.08-0.05 2.16-0.06 3.24-0.04 1.46 0 2.92 0.06 4.39 0.06 1.22 0.22 2.43 0.42 3.64 0.14 0.78 0.23 1.57 0.28 2.36 0.02 0.33 0.05 0.66 0.19 0.96 0.19 0.2 0.55 0.2 0.81 0.23 1.08 0.09 2.16 0.12 3.24 0.1 1.92-0.03 3.85-0.12 5.77-0.28 2.17-0.17 4.34-0.31 6.51-0.32 1.85-0.02 3.69 0.21 5.53 0.39 0.39 0.03 0.79 0.06 1.18 0.09l0-10.01c0-1.35-0.64-2.58-1.67-3.48l0.19 0c0 0-6.7-6.37-10.13-8.97-3.44-2.6-6.86-6.66-10.34-6.66zm-5.6 28.5c-0.19 0.91-0.4 1.82-0.61 2.72-0.26 0.94-0.54 1.86-0.83 2.79-0.16 0.46-0.39 0.89-0.56 1.35 0 0.01 0.01 0.01 0.01 0.02-0.82 0.57-1.36 0.49-4.17 1.81-0.15 0.13-0.26 0.19-0.3 0.14 0 0-0.01 0-0.01 0.01 0 0 0-0.01 0.01-0.01-0.01-0.01-0.01-0.02-0.01-0.03-0.1-0.21-0.22-0.41-0.32-0.62-0.24-0.4-0.48-0.81-0.7-1.22-0.28-0.58-0.52-1.18-0.7-1.8-0.18-0.64-0.39-1.27-0.62-1.9-0.07-0.21-0.13-0.43-0.2-0.64-0.79 0.47-1.58 0.95-2.37 1.41-0.49 0.29-1.12 0.28-1.67 0.34-1.04 0.02-2.09-0.03-3.13-0.01-0.11 0-0.21 0-0.32 0l0 10.18c0 2.75 2.63 4.97 5.9 4.97l32.28 0c3.27 0 5.89-2.22 5.89-4.97l0-12.61-2.08 1.52c-0.93-0.08-1.86-0.19-2.79-0.29-1.81-0.2-3.63-0.39-5.45-0.38-2.16 0.01-4.32 0.12-6.47 0.32-1.96 0.16-3.93 0.28-5.9 0.35-1.15 0.03-2.31 0.07-3.46-0.03-0.44-0.08-0.9-0.18-1.13-0.61-0.16-0.37-0.21-0.76-0.19-1.16-0.01-0.55-0.04-1.09-0.09-1.63z" inkscape:connector-curvature="0" style="fill-rule:nonzero;fill:#fff;opacity:0.77"/></g></svg>
