<?xml version="1.0" encoding="UTF-8" standalone="no"?>
<!-- Created with Inkscape (http://www.inkscape.org/) -->

<svg
   xmlns:dc="http://purl.org/dc/elements/1.1/"
   xmlns:cc="http://creativecommons.org/ns#"
   xmlns:rdf="http://www.w3.org/1999/02/22-rdf-syntax-ns#"
   xmlns:svg="http://www.w3.org/2000/svg"
   xmlns="http://www.w3.org/2000/svg"
   xmlns:sodipodi="http://sodipodi.sourceforge.net/DTD/sodipodi-0.dtd"
   xmlns:inkscape="http://www.inkscape.org/namespaces/inkscape"
   width="748.27289"
   height="1022.5238"
   id="svg3305"
   version="1.1"
   inkscape:version="0.48.5 r10040"
   sodipodi:docname="Logo1.1.svg">
  <defs
     id="defs3307" />
  <sodipodi:namedview
     id="base"
     pagecolor="#ffffff"
     bordercolor="#666666"
     borderopacity="1.0"
     inkscape:pageopacity="0.0"
     inkscape:pageshadow="2"
     inkscape:zoom="0.43957982"
     inkscape:cx="53.5581"
     inkscape:cy="437.23286"
     inkscape:document-units="px"
     inkscape:current-layer="layer1"
     showgrid="false"
     inkscape:window-width="1920"
     inkscape:window-height="1151"
     inkscape:window-x="1440"
     inkscape:window-y="0"
     inkscape:window-maximized="1"
     showguides="true"
     fit-margin-top="0"
     fit-margin-left="0"
     fit-margin-right="0"
     fit-margin-bottom="0"
     width="744.09px"
     inkscape:guide-bbox="true">
    <sodipodi:guide
       position="-321.44189,-640.11757"
       orientation="0,744.09448"
       id="guide3349" />
    <sodipodi:guide
       position="-321.44189,412.24463"
       orientation="1052.3622,0"
       id="guide3355" />
    <sodipodi:guide
       orientation="1,0"
       position="878.11129,398.10745"
       id="guide3000" />
  </sodipodi:namedview>
  <metadata
     id="metadata3310">
    <rdf:RDF>
      <cc:Work
         rdf:about="">
        <dc:format>image/svg+xml</dc:format>
        <dc:type
           rdf:resource="http://purl.org/dc/dcmitype/StillImage" />
        <dc:title />
      </cc:Work>
    </rdf:RDF>
  </metadata>
  <g
     inkscape:label="Layer 1"
     inkscape:groupmode="layer"
     id="layer1"
     transform="translate(-321.44189,610.27924)">
    <g
       id="g2992">
      <path
         inkscape:export-ydpi="300"
         inkscape:export-xdpi="300"
         inkscape:export-filename="/Users/Marcel/Documents/Graphics/SE2-Project/LogoWithoutLetters.png"
         inkscape:connector-curvature="0"
         style="fill:#009688;fill-opacity:1;fill-rule:nonzero;stroke:none"
         d="m 696.75266,-594.72559 c -56.3892,-1.1e-4 -111.93789,65.88008 -167.67626,108.02661 -55.73826,42.14663 -164.29444,145.41332 -164.29444,145.41332 l 0.75108,0 c -16.82972,14.49458 -27.24148,34.39434 -27.24148,56.36179 l 0,178.29098 c 4.32091,0.0412 8.64482,0.0618 12.96316,0.0927 17.73369,0.0721 35.52817,0.0103 53.26186,0.0927 10.84325,-0.16793 21.6493,0.12673 32.50192,0 0.38327,-0.8098 0.74799,-1.63702 1.12724,-2.44229 3.31721,-7.08981 6.52531,-14.20929 8.17243,-21.88719 0.4183,-2.91478 1.092,-5.78165 1.78487,-8.64214 -0.30085,-27.56334 69.66587,-60.80933 72.6127,-31.5626 0.0309,2.78888 -0.0721,5.57415 -0.18752,8.36036 0.28642,5.91868 1.35225,11.80749 2.34844,17.66002 2.04985,9.38138 5.16534,18.50095 7.89065,27.71119 2.49061,6.739 4.74271,13.61564 6.85738,20.478069 1.14505,-5.484829 2.23881,-10.935249 3.28774,-16.438829 3.10611,-17.72504 6.26218,-35.41927 10.61473,-52.88612 4.05901,-17.75842 8.9231,-35.3112 13.33901,-52.97998 4.31525,-18.32117 9.1816,-36.48717 14.37218,-54.57693 4.26847,-16.54649 8.35665,-33.16058 12.30573,-49.7862 1.76272,-7.42362 3.15515,-15.01095 3.56953,-22.63868 0.24933,-0.93962 -0.24521,-2.73139 0.46981,-1.50298 0.4049,-11.32047 6.03665,-8.59907 36.16541,-21.6053 27.61475,-17.8495 33.58165,-24.109 34.19282,-15.7813 0.36575,1.12662 0.26169,2.21892 0,3.47567 -0.13909,4.29361 -0.69648,10.50304 -0.93962,18.97508 -0.51515,17.50899 -0.74902,35.09061 -1.03328,52.60424 -0.62126,23.7212 -0.0412,47.41077 0.93962,71.10982 0.96641,19.83043 3.5785,39.42987 6.85728,58.99191 2.27909,12.6209 3.64793,25.4461 4.50894,38.23205 0.24521,5.34956 0.85823,10.66562 3.00596,15.59338 3.03162,3.27157 8.9264,3.24334 13.05713,3.75745 17.47086,1.50072 34.98614,1.94343 52.51037,1.59695 31.20829,-0.476 62.45614,-1.94879 93.56047,-4.50895 35.14749,-2.78424 70.3196,-5.04541 105.58433,-5.16647 30.0351,-0.31321 59.87015,3.38604 89.70915,6.29371 6.3708,0.47084 12.7792,0.95198 19.163,1.40902 l 0,-162.32176 c 0,-21.96209 -10.3252,-41.86814 -27.1476,-56.36179 l 3.006,0 c 0,0 -108.55612,-103.26669 -164.29449,-145.41332 -55.73826,-42.14653 -111.28706,-108.02661 -167.67615,-108.02661 z m -90.74244,462.07232 c -3.05552,14.71897 -6.43619,29.44103 -9.9572,44.056053 -4.19862,15.178379 -8.8041,30.160075 -13.52683,45.183396 -2.52894,7.513978 -6.29473,14.449966 -9.01788,21.887085 0.0309,0.08242 0.0721,0.206057 0.0927,0.282298 -13.22794,9.239193 -22.12096,7.928566 -67.54018,29.4019914 -2.48845,2.0790136 -4.14052,3.1256816 -4.79073,2.2544716 -0.0721,0.03091 -0.11745,0.06182 -0.18751,0.09273 0.0412,-0.06182 0.0515,-0.129816 0.0927,-0.187512 -0.0927,-0.166907 -0.1463,-0.292601 -0.18751,-0.5635666 -1.558,-3.4368278 -3.59961,-6.6680106 -5.26043,-10.0511605 -3.94353,-6.4969831 -7.72571,-13.0519709 -11.36632,-19.7265759 -4.53491,-9.41465 -8.38241,-19.200924 -11.36632,-29.21417 -2.85008,-10.429172 -6.37047,-20.64796 -10.05117,-30.811113 -1.09972,-3.437961 -2.17307,-6.899 -3.28774,-10.332943 -12.76947,7.676763 -25.582,15.358987 -38.41998,22.920462 -7.99049,4.706243 -18.16549,4.547476 -27.05356,5.542217 -16.91194,0.283329 -33.8111,-0.420357 -50.72561,-0.187512 -1.72388,0.0078 -3.4426,-0.0069 -5.16647,0 l 0,165.045929 c 0,44.5882 42.67959,80.50345 95.62712,80.50345 l 523.41266,0 c 52.94744,0 95.53324,-35.91525 95.53324,-80.50345 l 0,-204.40523 -33.7232,24.611376 c -15.0831,-1.325257 -30.12864,-3.080246 -45.18329,-4.696868 -29.39168,-3.166068 -58.78955,-6.350579 -88.394,-6.199745 -34.99798,0.119513 -69.98155,1.950434 -104.83293,5.166472 -31.85592,2.604665 -63.7781,4.486998 -95.72098,5.636179 -18.71927,0.527506 -37.49674,1.074691 -56.17387,-0.563567 -7.14853,-1.305475 -14.58339,-2.977526 -18.31755,-9.863236 -2.5308,-5.940217 -3.45394,-12.310474 -3.09993,-18.787271 -0.12569,-8.83666 -0.58108,-17.69516 -1.40902,-26.48999 z"
         id="rect4349" />
      <text
         inkscape:export-ydpi="300"
         inkscape:export-xdpi="300"
         inkscape:export-filename="/Users/Marcel/Google Drive/Study/SE2-Projekt/Design/Logo/Logo.png"
         sodipodi:linespacing="125%"
         id="text3118"
         y="353.39307"
         x="324.16852"
         style="font-size:205.1368103px;font-style:normal;font-variant:normal;font-weight:normal;font-stretch:normal;line-height:125%;letter-spacing:0px;word-spacing:0px;fill:#000000;fill-opacity:1;stroke:none;font-family:Arial Rounded MT Bold;-inkscape-font-specification:Arial Rounded MT Bold"
         xml:space="preserve"><tspan
           y="353.39307"
           x="324.16852"
           id="tspan3120"
           sodipodi:role="line"><tspan
             id="tspan4057"
             style="fill:#5c5c5c;fill-opacity:1">loggr.</tspan><tspan
             id="tspan3890"
             style="fill:#009688;fill-opacity:1">io</tspan></tspan></text>
      <rect
         inkscape:export-ydpi="300"
         inkscape:export-xdpi="300"
         inkscape:export-filename="/Users/Marcel/Google Drive/Study/SE2-Projekt/Design/Logo/Logo.png"
         y="-610.27924"
         x="321.44189"
         height="1022.5238"
         width="748.27289"
         id="rect4804"
         style="opacity:0;color:#000000;fill:#ffffff;fill-opacity:1;fill-rule:nonzero;stroke:none;stroke-width:1.01188815px;marker:none;visibility:visible;display:inline;overflow:visible;enable-background:accumulate" />
    </g>
  </g>
</svg>
