<?xml version="1.0" encoding="UTF-8" standalone="no"?>
<!-- Created with Inkscape (http://www.inkscape.org/) -->

<svg
   xmlns:dc="http://purl.org/dc/elements/1.1/"
   xmlns:cc="http://creativecommons.org/ns#"
   xmlns:rdf="http://www.w3.org/1999/02/22-rdf-syntax-ns#"
   xmlns:svg="http://www.w3.org/2000/svg"
   xmlns="http://www.w3.org/2000/svg"
   xmlns:sodipodi="http://sodipodi.sourceforge.net/DTD/sodipodi-0.dtd"
   xmlns:inkscape="http://www.inkscape.org/namespaces/inkscape"
   width="48"
   height="48"
   viewBox="0 0 48 48"
   id="svg3882"
   version="1.1"
   inkscape:version="0.48.5 r10040"
   sodipodi:docname="loggr_icon_white.svg">
  <defs
     id="defs3884" />
  <sodipodi:namedview
     id="base"
     pagecolor="#ffffff"
     bordercolor="#666666"
     borderopacity="1.0"
     inkscape:pageopacity="0.0"
     inkscape:pageshadow="2"
     inkscape:zoom="3.6367187"
     inkscape:cx="31.871213"
     inkscape:cy="24.568212"
     inkscape:document-units="px"
     inkscape:current-layer="layer1"
     showgrid="false"
     fit-margin-top="0"
     fit-margin-left="0"
     fit-margin-right="0"
     fit-margin-bottom="0"
     inkscape:window-width="1440"
     inkscape:window-height="851"
     inkscape:window-x="0"
     inkscape:window-y="0"
     inkscape:window-maximized="1"
     inkscape:snap-page="true" />
  <metadata
     id="metadata3887">
    <rdf:RDF>
      <cc:Work
         rdf:about="">
        <dc:format>image/svg+xml</dc:format>
        <dc:type
           rdf:resource="http://purl.org/dc/dcmitype/StillImage" />
        <dc:title></dc:title>
      </cc:Work>
    </rdf:RDF>
  </metadata>
  <g
     inkscape:label="Layer 1"
     inkscape:groupmode="layer"
     id="layer1"
     transform="translate(-179.28249,-337.82726)">
    <path
       inkscape:export-ydpi="300"
       inkscape:export-xdpi="300"
       inkscape:export-filename="/Users/Marcel/Documents/Graphics/SE2-Project/LogoTransparentWhite.png"
       id="path3903"
       d="m 203.31633,337.82726 c -3.47817,0 -6.9045,4.06359 -10.3425,6.66323 -3.43803,2.59966 -10.13391,8.9693 -10.13391,8.9693 l 0.0463,0 c -1.03809,0.89404 -1.68029,2.12148 -1.68029,3.47647 l 0,10.99722 c 0.26652,0.002 0.53322,0.003 0.79957,0.006 1.09385,0.005 2.19144,6.4e-4 3.28528,0.006 0.66883,-0.009 1.33536,0.007 2.00475,0 0.0237,-0.0498 0.0461,-0.10091 0.0696,-0.15063 0.20461,-0.43732 0.40248,-0.87644 0.50408,-1.35003 0.0257,-0.17978 0.0673,-0.35662 0.11012,-0.53306 -0.0185,-1.70014 4.29708,-3.75081 4.47886,-1.94683 0.002,0.17203 -0.005,0.34383 -0.011,0.5157 0.0176,0.36505 0.0834,0.7283 0.14485,1.08929 0.12644,0.57864 0.31861,1.14114 0.48672,1.70924 0.15363,0.4157 0.29253,0.83985 0.42297,1.26312 0.0706,-0.33831 0.13809,-0.67449 0.20278,-1.01396 0.19159,-1.0933 0.38627,-2.18472 0.65475,-3.26209 0.25035,-1.09536 0.55037,-2.17804 0.82276,-3.26788 0.26616,-1.13007 0.56633,-2.25058 0.8865,-3.36637 0.26328,-1.02061 0.51544,-2.04539 0.75902,-3.07089 0.10876,-0.45788 0.19462,-0.9259 0.22018,-1.39638 0.0153,-0.058 -0.0151,-0.16847 0.029,-0.0927 0.0249,-0.69826 0.37234,-0.53039 2.23072,-1.33265 1.70332,-1.10099 2.07137,-1.48706 2.10906,-0.97341 0.0224,0.0696 0.0161,0.13687 0,0.21439 -0.008,0.26483 -0.0429,0.64784 -0.058,1.17041 -0.0318,1.07997 -0.0462,2.16444 -0.0636,3.24469 -0.0383,1.46317 -0.002,2.92437 0.058,4.38615 0.0595,1.22318 0.22074,2.43208 0.42297,3.6387 0.14059,0.77847 0.22501,1.56955 0.27812,2.35821 0.0151,0.32996 0.053,0.65787 0.18542,0.96182 0.18698,0.2018 0.5506,0.20006 0.80538,0.23177 1.07763,0.0926 2.158,0.11989 3.23892,0.0985 1.92496,-0.0293 3.85236,-0.12027 5.77092,-0.27813 2.16795,-0.17173 4.33741,-0.3112 6.51258,-0.31868 1.85261,-0.0193 3.69288,0.20887 5.53337,0.38821 0.39298,0.029 0.78824,0.0587 1.18201,0.0868 l 0,-10.01222 c 0,-1.35465 -0.63686,-2.58249 -1.6745,-3.47648 l 0.18542,0 c 0,0 -6.69589,-6.36962 -10.1339,-8.96928 -3.43802,-2.59965 -6.86434,-6.66323 -10.34251,-6.66323 z m -5.59713,28.50125 c -0.18847,0.90789 -0.39699,1.81596 -0.61417,2.71744 -0.25898,0.93623 -0.54305,1.86031 -0.83435,2.78697 -0.15599,0.46348 -0.38827,0.8913 -0.55624,1.35004 0.002,0.005 0.005,0.0128 0.006,0.0174 -0.81594,0.56988 -1.36447,0.48905 -4.16598,1.81356 -0.15349,0.12823 -0.25539,0.19279 -0.2955,0.13906 -0.005,0.002 -0.007,0.003 -0.011,0.006 0.002,-0.003 0.003,-0.008 0.006,-0.011 -0.006,-0.009 -0.008,-0.018 -0.011,-0.0348 -0.0962,-0.21199 -0.22203,-0.41129 -0.32448,-0.61997 -0.24324,-0.40074 -0.47652,-0.80506 -0.70109,-1.21676 -0.27972,-0.5807 -0.51704,-1.18433 -0.70109,-1.80197 -0.17578,-0.64329 -0.39293,-1.27359 -0.61996,-1.90048 -0.0677,-0.21204 -0.13403,-0.42553 -0.2028,-0.63733 -0.78762,0.4735 -1.57792,0.94736 -2.36978,1.41374 -0.49288,0.29031 -1.12048,0.28051 -1.66871,0.34187 -1.04314,0.0175 -2.0855,-0.0259 -3.12882,-0.011 -0.10632,4.8e-4 -0.21235,-4.3e-4 -0.31868,0 l 0,10.18026 c 0,2.75027 2.63253,4.96556 5.89841,4.96556 l 32.28479,0 c 3.26587,0 5.89262,-2.21529 5.89262,-4.96556 l 0,-12.608 -2.08008,1.51806 c -0.93035,-0.0817 -1.85838,-0.18998 -2.78697,-0.2897 -1.81292,-0.19528 -3.62623,-0.39172 -5.45227,-0.3824 -2.15871,0.007 -4.31655,0.12025 -6.46623,0.31867 -1.9649,0.16066 -3.93392,0.27677 -5.9042,0.34765 -1.15462,0.0325 -2.31284,0.0664 -3.46489,-0.0348 -0.44093,-0.0805 -0.8995,-0.18363 -1.12984,-0.60836 -0.15609,-0.36641 -0.21304,-0.75933 -0.19121,-1.15882 -0.007,-0.54507 -0.0358,-1.09147 -0.0868,-1.63395 z"
       style="opacity:0.76999996;fill:#ffffff;fill-opacity:1;fill-rule:nonzero;stroke:none"
       inkscape:connector-curvature="0" />
  </g>
</svg>
