<?xml version="1.0" encoding="UTF-8"?><!DOCTYPE svg PUBLIC "-//W3C//DTD SVG 1.1//EN" "http://www.w3.org/Graphics/SVG/1.1/DTD/svg11.dtd"><svg xmlns="http://www.w3.org/2000/svg" xmlns:xlink="http://www.w3.org/1999/xlink" version="1.1" width="24" height="24" viewBox="0 0 24 24"><path d="M3,18C3.55,18 4,18.45 4,19C4,19.55 3.55,20 3,20C2.45,20 2,19.55 2,19C2,18.45 2.45,18 3,18M21,4C21.55,4 22,4.45 22,5C22,5.55 21.55,6 21,6C20.45,6 20,5.55 20,5C20,4.45 20.45,4 21,4M8,9C8.55,9 9,9.45 9,10C9,10.55 8.55,11 8,11C7.45,11 7,10.55 7,10C7,9.45 7.45,9 8,9M16,13C16.55,13 17,13.45 17,14C17,14.55 16.55,15 16,15C15.45,15 15,14.55 15,14C15,13.45 15.45,13 16,13M5.25,17C4.8,16.5 4.19,16.16 3.5,16.04L5.75,12C6.19,12.5 6.8,12.84 7.5,12.96L5.25,17M13.91,11.84C13.43,12.31 13.11,12.93 13,13.63L10.08,12.16C10.56,11.7 10.89,11.08 11,10.38L13.91,11.84M18.75,7C19.19,7.5 19.8,7.84 20.5,7.96L18.25,12C17.8,11.5 17.19,11.16 16.5,11.04L18.75,7Z" /></svg>